<svg id="visual" viewBox="0 0 1920 1080" width="1920" height="1080" xmlns="http://www.w3.org/2000/svg" xmlns:xlink="http://www.w3.org/1999/xlink" version="1.1"><rect x="0" y="0" width="1920" height="1080" fill="#e8cdcd"></rect><path d="M0 705L45.7 713.3C91.3 721.7 182.7 738.3 274.2 735.8C365.7 733.3 457.3 711.7 548.8 708.3C640.3 705 731.7 720 823 722.8C914.3 725.7 1005.7 716.3 1097 725.8C1188.3 735.3 1279.7 763.7 1371.2 765.2C1462.7 766.7 1554.3 741.3 1645.8 737.2C1737.3 733 1828.7 750 1874.3 758.5L1920 767L1920 1081L1874.3 1081C1828.7 1081 1737.3 1081 1645.8 1081C1554.3 1081 1462.7 1081 1371.2 1081C1279.7 1081 1188.3 1081 1097 1081C1005.7 1081 914.3 1081 823 1081C731.7 1081 640.3 1081 548.8 1081C457.3 1081 365.7 1081 274.2 1081C182.7 1081 91.3 1081 45.7 1081L0 1081Z" fill="#efa9a4"></path><path d="M0 746L45.7 752C91.3 758 182.7 770 274.2 782.5C365.7 795 457.3 808 548.8 813.7C640.3 819.3 731.7 817.7 823 816.7C914.3 815.7 1005.7 815.3 1097 800.7C1188.3 786 1279.7 757 1371.2 757.8C1462.7 758.7 1554.3 789.3 1645.8 786.7C1737.3 784 1828.7 748 1874.3 730L1920 712L1920 1081L1874.3 1081C1828.7 1081 1737.3 1081 1645.8 1081C1554.3 1081 1462.7 1081 1371.2 1081C1279.7 1081 1188.3 1081 1097 1081C1005.7 1081 914.3 1081 823 1081C731.7 1081 640.3 1081 548.8 1081C457.3 1081 365.7 1081 274.2 1081C182.7 1081 91.3 1081 45.7 1081L0 1081Z" fill="#eda0a0"></path><path d="M0 816L45.7 814.7C91.3 813.3 182.7 810.7 274.2 825.2C365.7 839.7 457.3 871.3 548.8 870.8C640.3 870.3 731.7 837.7 823 819.8C914.3 802 1005.7 799 1097 808C1188.3 817 1279.7 838 1371.2 845.8C1462.7 853.7 1554.3 848.3 1645.8 840.8C1737.3 833.3 1828.7 823.7 1874.3 818.8L1920 814L1920 1081L1874.3 1081C1828.7 1081 1737.3 1081 1645.8 1081C1554.3 1081 1462.7 1081 1371.2 1081C1279.7 1081 1188.3 1081 1097 1081C1005.7 1081 914.3 1081 823 1081C731.7 1081 640.3 1081 548.8 1081C457.3 1081 365.7 1081 274.2 1081C182.7 1081 91.3 1081 45.7 1081L0 1081Z" fill="#ea989d"></path><path d="M0 915L45.7 911.8C91.3 908.7 182.7 902.3 274.2 896.8C365.7 891.3 457.3 886.7 548.8 897C640.3 907.3 731.7 932.7 823 944.7C914.3 956.7 1005.7 955.3 1097 947.5C1188.3 939.7 1279.7 925.3 1371.2 917.8C1462.7 910.3 1554.3 909.7 1645.8 916.2C1737.3 922.7 1828.7 936.3 1874.3 943.2L1920 950L1920 1081L1874.3 1081C1828.7 1081 1737.3 1081 1645.8 1081C1554.3 1081 1462.7 1081 1371.2 1081C1279.7 1081 1188.3 1081 1097 1081C1005.7 1081 914.3 1081 823 1081C731.7 1081 640.3 1081 548.8 1081C457.3 1081 365.7 1081 274.2 1081C182.7 1081 91.3 1081 45.7 1081L0 1081Z" fill="#e7909b"></path><path d="M0 1020L45.7 1021.2C91.3 1022.3 182.7 1024.7 274.2 1020.8C365.7 1017 457.3 1007 548.8 1006.3C640.3 1005.7 731.7 1014.3 823 1015.7C914.3 1017 1005.7 1011 1097 1004.2C1188.3 997.3 1279.7 989.7 1371.2 989C1462.7 988.3 1554.3 994.7 1645.8 989.2C1737.3 983.7 1828.7 966.3 1874.3 957.7L1920 949L1920 1081L1874.3 1081C1828.7 1081 1737.3 1081 1645.8 1081C1554.3 1081 1462.7 1081 1371.2 1081C1279.7 1081 1188.3 1081 1097 1081C1005.7 1081 914.3 1081 823 1081C731.7 1081 640.3 1081 548.8 1081C457.3 1081 365.7 1081 274.2 1081C182.7 1081 91.3 1081 45.7 1081L0 1081Z" fill="#e38899"></path></svg>